0
SECTION
2
HEADER
9
$ACADVER
1
AC1014
0
ENDSEC
0
SECTION
2
TABLES
0
TABLE
2
LAYER
0
LAYER
2
FLOOR
70
0
0
LAYER
2
WALL
70
0
0
LAYER
2
DEVICE
70
0
0
ENDTAB
0
ENDSEC
0
SECTION
2
BLOCKS
0
BLOCK
8
DEVICE
2
machine
70
0
10
0.0
20
0.0
30
0.0
0
ENDBLK
0
BLOCK
8
DEVICE
2
shelf
70
0
10
0.0
20
0.0
30
0.0
0
ENDBLK
0
BLOCK
8
DEVICE
2
pallet
70
0
10
0.0
20
0.0
30
0.0
0
ENDBLK
0
BLOCK
8
DEVICE
2
agv
70
0
10
0.0
20
0.0
30
0.0
0
ENDBLK
0
ENDSEC
0
SECTION
2
ENTITIES
0
LWPOLYLINE
8
FLOOR
90
4
70
1
10
-15.0
20
-10.0
10
15.0
20
-10.0
10
15.0
20
10.0
10
-15.0
20
10.0
0
LINE
8
WALL
10
-15.0
20
-10.0
11
15.0
21
-10.0
0
LINE
8
WALL
10
-15.0
20
10.0
11
15.0
21
10.0
0
LINE
8
WALL
10
-15.0
20
-10.0
11
-15.0
21
10.0
0
LINE
8
WALL
10
15.0
20
-10.0
11
15.0
21
10.0
0
INSERT
8
DEVICE
2
machine
10
-8.0
20
-4.0
50
0.0
0
INSERT
8
DEVICE
2
machine
10
-3.0
20
-4.0
50
0.0
0
INSERT
8
DEVICE
2
shelf
10
-10.0
20
4.0
50
0.0
0
INSERT
8
DEVICE
2
pallet
10
0.0
20
6.0
50
0.0
0
ENDSEC
0
EOF
